<?xml version="1.0" encoding="UTF-8"?>
<svg version="1.1" xmlns="http://www.w3.org/2000/svg" width="209" height="241">
<path d="M0 0 C68.97 0 137.94 0 209 0 C209 79.53 209 159.06 209 241 C140.03 241 71.06 241 0 241 C0 161.47 0 81.94 0 0 Z " fill="#FDFDFD" transform="translate(0,0)"/>
<path d="M0 0 C4.29819794 3.45952517 4.29819794 3.45952517 5.5625 6.0625 C5.5625 10.45046566 5.05368891 12.46510809 2.25 15.875 C-1.150044 18.64247767 -3.02838879 20.0625 -7.4375 20.0625 C-7.4375 22.7025 -7.4375 25.3425 -7.4375 28.0625 C-6.17566895 28.05202637 -4.91383789 28.04155273 -3.61376953 28.03076172 C1.05644914 27.99463101 5.72665539 27.97162484 10.39697266 27.95263672 C12.42043127 27.94256329 14.44387528 27.92890405 16.46728516 27.91162109 C19.37145589 27.88743153 22.27543461 27.87603051 25.1796875 27.8671875 C26.08806366 27.85686493 26.99643982 27.84654236 27.93234253 27.83590698 C28.77306305 27.83575592 29.61378357 27.83560486 30.47998047 27.83544922 C31.59250687 27.82878738 31.59250687 27.82878738 32.72750854 27.82199097 C34.5625 28.0625 34.5625 28.0625 36.5625 30.0625 C37.94716032 38.10227683 37.72206863 46.48984897 37.6875 54.625 C37.68351196 56.34275635 37.68351196 56.34275635 37.67944336 58.09521484 C37.63267071 66.79729526 37.42675739 75.49071208 37.125 84.1875 C37.06626709 85.94815796 37.06626709 85.94815796 37.00634766 87.74438477 C36.94326416 89.35978149 36.94326416 89.35978149 36.87890625 91.0078125 C36.84224854 91.96187988 36.80559082 92.91594727 36.76782227 93.89892578 C36.5625 96.0625 36.5625 96.0625 35.5625 97.0625 C33.56291636 97.10330783 31.56204746 97.10504356 29.5625 97.0625 C25.47490641 87.64326259 25.47490641 87.64326259 25.29711914 83.03759766 C25.26360855 82.23311188 25.23009796 81.4286261 25.1955719 80.59976196 C25.16325974 79.73410614 25.13094757 78.86845032 25.09765625 77.9765625 C25.01913231 76.1406142 24.94034815 74.30467701 24.86132812 72.46875 C24.74172312 69.5766176 24.62488125 66.68443174 24.51293945 63.79199219 C24.40311466 60.99896422 24.28231981 58.20657421 24.16015625 55.4140625 C24.12986832 54.55245514 24.09958038 53.69084778 24.06837463 52.8031311 C23.87325603 48.48811838 23.53990688 44.99725383 21.5625 41.0625 C18.9225 41.0625 16.2825 41.0625 13.5625 41.0625 C13.57249275 42.08940445 13.57249275 42.08940445 13.58268738 43.13705444 C13.6488922 50.24171263 13.69423868 57.34628368 13.72729492 64.45117188 C13.74241145 67.10517941 13.76290495 69.75916186 13.78881836 72.41308594 C13.82507521 76.220766 13.84219763 80.02811675 13.85546875 83.8359375 C13.87095261 85.02867279 13.88643646 86.22140808 13.90238953 87.45028687 C13.90261612 88.55127716 13.90284271 89.65226746 13.90307617 90.78662109 C13.91306892 92.2455629 13.91306892 92.2455629 13.92326355 93.73397827 C13.80421158 94.50239044 13.68515961 95.27080261 13.5625 96.0625 C10.35441085 98.2012261 9.28551503 98.53980962 5.5625 98.0625 C3.14281888 94.43297832 3.19002792 92.42311181 2.96875 88.08984375 C2.93172974 87.38923325 2.89470947 86.68862274 2.85656738 85.96678162 C2.37865251 76.34095553 2.20705095 66.70191712 2.01025391 57.06713867 C1.95884946 54.60845003 1.9016357 52.1499495 1.84375 49.69140625 C1.83017456 48.93743057 1.81659912 48.1834549 1.8026123 47.40663147 C2.02466855 43.94216122 2.02466855 43.94216122 0.5625 41.0625 C-2.10808851 40.92134839 -4.76182238 41.02002893 -7.4375 41.0625 C-7.42861755 41.71760559 -7.41973511 42.37271118 -7.4105835 43.04766846 C-7.3221495 49.86062909 -7.2617819 56.67342693 -7.21777344 63.48681641 C-7.19764728 66.03017803 -7.17034363 68.57349333 -7.13574219 71.11669922 C-7.0872703 74.77062404 -7.06454084 78.42393756 -7.046875 82.078125 C-7.02622986 83.21679016 -7.00558472 84.35545532 -6.98431396 85.52862549 C-6.98386078 87.11982208 -6.98386078 87.11982208 -6.98339844 88.74316406 C-6.97451599 89.67582092 -6.96563354 90.60847778 -6.95648193 91.56939697 C-7.58646339 94.83457306 -8.85145906 96.03858725 -11.4375 98.0625 C-14.0625 98.125 -14.0625 98.125 -16.4375 97.0625 C-18.13176854 93.66183394 -18.72285242 90.70735985 -18.90820312 86.93676758 C-18.96165894 85.94256302 -19.01511475 84.94835846 -19.07019043 83.92402649 C-19.11921509 82.86241806 -19.16823975 81.80080963 -19.21875 80.70703125 C-19.27776489 79.60904709 -19.33677979 78.51106293 -19.39758301 77.37980652 C-19.64972394 72.68751966 -19.88198954 67.99430807 -20.11474609 63.30102539 C-20.2876305 59.87341451 -20.47157188 56.44652362 -20.65625 53.01953125 C-20.72978699 51.41800957 -20.72978699 51.41800957 -20.80480957 49.78413391 C-20.85826538 48.79938583 -20.91172119 47.81463776 -20.96679688 46.80004883 C-21.00961792 45.93132645 -21.05243896 45.06260406 -21.09655762 44.16755676 C-21.26155206 41.84847556 -21.26155206 41.84847556 -23.4375 40.0625 C-26.21987655 40.46778901 -26.21987655 40.46778901 -28.4375 42.0625 C-28.54938894 43.49297306 -28.59420655 44.92878239 -28.61108398 46.36352539 C-28.62457382 47.27860367 -28.63806366 48.19368195 -28.65196228 49.13648987 C-28.66240067 50.13429977 -28.67283905 51.13210968 -28.68359375 52.16015625 C-28.71655619 54.26237358 -28.7497674 56.36458702 -28.78320312 58.46679688 C-28.83046308 61.78895146 -28.87483477 65.11109306 -28.91430664 68.43334961 C-28.95424165 71.63412881 -29.00576119 74.8345675 -29.05859375 78.03515625 C-29.0670079 79.01879654 -29.07542206 80.00243683 -29.08409119 81.0158844 C-29.18481073 86.68759858 -29.83155979 91.61659974 -31.4375 97.0625 C-33.9125 97.5575 -33.9125 97.5575 -36.4375 98.0625 C-39.09790919 93.78271131 -40.55110166 90.60101301 -40.61108398 85.546875 C-40.62457382 84.63583008 -40.63806366 83.72478516 -40.65196228 82.78613281 C-40.66240067 81.80483398 -40.67283905 80.82353516 -40.68359375 79.8125 C-40.71652073 77.73957893 -40.74973256 75.66666237 -40.78320312 73.59375 C-40.83069984 70.32164497 -40.87515483 67.04955971 -40.91430664 63.77734375 C-40.95393571 60.62220539 -41.00549015 57.46743624 -41.05859375 54.3125 C-41.0670079 53.33120117 -41.07542206 52.34990234 -41.08409119 51.33886719 C-41.10905418 49.9722998 -41.10905418 49.9722998 -41.13452148 48.578125 C-41.14482895 47.77665039 -41.15513641 46.97517578 -41.16575623 46.14941406 C-41.3205293 43.75845147 -41.3205293 43.75845147 -43.4375 41.0625 C-46.02130177 40.81219023 -46.02130177 40.81219023 -48.4375 41.0625 C-49.40054631 43.95163894 -49.57221604 45.81670738 -49.59521484 48.82177734 C-49.61060806 50.26875504 -49.61060806 50.26875504 -49.62631226 51.7449646 C-49.63361359 52.78561066 -49.64091492 53.82625671 -49.6484375 54.8984375 C-49.6765033 57.09896581 -49.70516774 59.29948655 -49.734375 61.5 C-49.77565769 64.97167777 -49.81254332 68.44321379 -49.83886719 71.91503906 C-49.86646564 75.2639691 -49.91233484 78.61225526 -49.9609375 81.9609375 C-49.96419037 82.9975351 -49.96744324 84.03413269 -49.97079468 85.10214233 C-50.12791601 94.3109805 -50.12791601 94.3109805 -53.4375 98.0625 C-56.125 98.875 -56.125 98.875 -58.4375 99.0625 C-61.21608975 95.91688759 -61.82024107 93.91224979 -61.86987305 89.74316406 C-61.88966721 88.68236633 -61.90946136 87.6215686 -61.92985535 86.52862549 C-61.93624527 85.38996033 -61.94263519 84.25129517 -61.94921875 83.078125 C-61.97614555 81.32202911 -61.97614555 81.32202911 -62.00361633 79.53045654 C-62.05779866 75.79117433 -62.09164142 72.05202036 -62.125 68.3125 C-62.15816597 65.77732588 -62.19265494 63.24216869 -62.22851562 60.70703125 C-62.31352984 54.49230248 -62.38184634 48.27755728 -62.4375 42.0625 C-64.9125 42.5575 -64.9125 42.5575 -67.4375 43.0625 C-68.35429809 45.81289427 -68.57539791 47.50724538 -68.61108398 50.34692383 C-68.62457382 51.20824417 -68.63806366 52.06956451 -68.65196228 52.95698547 C-68.66240067 53.88512558 -68.67283905 54.81326569 -68.68359375 55.76953125 C-68.71653631 57.73763459 -68.74974789 59.70573344 -68.78320312 61.67382812 C-68.83057292 64.77446363 -68.87500103 67.87508147 -68.91430664 70.97583008 C-68.95413028 73.96975716 -69.0056535 76.96331134 -69.05859375 79.95703125 C-69.0670079 80.87909866 -69.07542206 81.80116608 -69.08409119 82.75117493 C-69.29759568 93.92259568 -69.29759568 93.92259568 -72.4375 97.0625 C-74.77047433 97.10342937 -77.10455225 97.10491723 -79.4375 97.0625 C-80.91403082 94.10943836 -80.914907 91.00446887 -81.19140625 87.7578125 C-81.25680603 87.01436081 -81.32220581 86.27090912 -81.3895874 85.50492859 C-81.60004149 83.06631627 -81.8014551 80.62710975 -82 78.1875 C-82.10180069 76.94762833 -82.10180069 76.94762833 -82.20565796 75.68270874 C-83.1151577 64.40838012 -83.73120199 53.1883935 -83.75 41.875 C-83.75523682 40.70146973 -83.76047363 39.52793945 -83.76586914 38.31884766 C-83.69771687 30.32271687 -83.69771687 30.32271687 -81.4375 28.0625 C-79.56454468 27.7840271 -79.56454468 27.7840271 -77.26318359 27.74365234 C-76.40244232 27.72378265 -75.54170105 27.70391296 -74.65487671 27.68344116 C-73.2595018 27.66611435 -73.2595018 27.66611435 -71.8359375 27.6484375 C-70.88433746 27.62907135 -69.93273743 27.6097052 -68.95230103 27.5897522 C-65.90579253 27.52985868 -62.85924646 27.48353205 -59.8125 27.4375 C-57.7499833 27.39932921 -55.6874827 27.36027802 -53.625 27.3203125 C-48.56263034 27.22414914 -43.50018605 27.14015437 -38.4375 27.0625 C-38.4375 25.0825 -38.4375 23.1025 -38.4375 21.0625 C-38.95699219 20.84335938 -39.47648437 20.62421875 -40.01171875 20.3984375 C-45.16442487 18.0554325 -48.46438529 15.95375323 -51.4375 11.0625 C-51.625 7.5 -51.625 7.5 -50.4375 4.0625 C-38.1232969 -8.53807991 -14.6961407 -8.2832793 0 0 Z " fill="#040404" transform="translate(127.4375,73.9375)"/>
<path d="M0 0 C0.66 0 1.32 0 2 0 C2.33 1.65 2.66 3.3 3 5 C4.32 4.34 5.64 3.68 7 3 C7.07612856 9.60189418 7.12863283 16.20367494 7.16479492 22.8059082 C7.17987182 25.05139394 7.20033653 27.29685029 7.22631836 29.54223633 C7.26274918 32.77172099 7.27973755 36.00081594 7.29296875 39.23046875 C7.30845261 40.23272995 7.32393646 41.23499115 7.33988953 42.2676239 C7.3420404 51.1959993 7.3420404 51.1959993 4 55 C1.3125 55.8125 1.3125 55.8125 -1 56 C-3.63892698 52.97289541 -4.37216996 51.14152843 -4.34057617 47.13964844 C-4.34034958 46.17895447 -4.34012299 45.2182605 -4.33988953 44.22845459 C-4.32440567 43.19915833 -4.30892181 42.16986206 -4.29296875 41.109375 C-4.28872391 40.04962463 -4.28447906 38.98987427 -4.28010559 37.89801025 C-4.2633203 34.51508113 -4.22566755 31.13274891 -4.1875 27.75 C-4.17245301 25.45573777 -4.15876463 23.1614662 -4.14648438 20.8671875 C-4.11341728 15.2445882 -4.06321903 9.62233675 -4 4 C-3.01 3.67 -2.02 3.34 -1 3 C-0.67 2.01 -0.34 1.02 0 0 Z " fill="#060606" transform="translate(70,117)"/>
<path d="M0 0 C1.32 0.66 2.64 1.32 4 2 C3.01 2 2.02 2 1 2 C1.99 2.66 2.98 3.32 4 4 C4.33 4.66 4.66 5.32 5 6 C5.33 6 5.66 6 6 6 C6.07589768 12.2295758 6.12853504 18.45903295 6.16479492 24.68896484 C6.17990645 26.80945288 6.2003964 28.92990954 6.22631836 31.05029297 C6.26259786 34.09350311 6.27970242 37.13630103 6.29296875 40.1796875 C6.30845261 41.13181122 6.32393646 42.08393494 6.33988953 43.06491089 C6.34022942 44.38605392 6.34022942 44.38605392 6.34057617 45.73388672 C6.34723801 46.51110077 6.35389984 47.28831482 6.36076355 48.08908081 C6.24171158 48.71968414 6.12265961 49.35028748 6 50 C3 52 3 52 0.4375 51.9375 C-2 51 -2 51 -3.11328125 48.87109375 C-6.06851602 39.30238206 -5.1290703 27.75543395 -5.25 17.8125 C-5.27143066 16.82072754 -5.29286133 15.82895508 -5.31494141 14.80712891 C-5.35538453 6.06392447 -5.35538453 6.06392447 -2 2 C-1.34 1.34 -0.68 0.68 0 0 Z " fill="#020202" transform="translate(113,120)"/>
<path d="M0 0 C2.31 0.66 4.62 1.32 7 2 C8.0069181 11.56572195 8.16708461 21.13913096 8.25 30.75 C8.27126953 32.01231445 8.29253906 33.27462891 8.31445312 34.57519531 C8.31896484 35.76209961 8.32347656 36.94900391 8.328125 38.171875 C8.34214355 39.7820752 8.34214355 39.7820752 8.35644531 41.42480469 C8.23881836 42.27461914 8.12119141 43.12443359 8 44 C4.79191085 46.1387261 3.72301503 46.47730962 0 46 C-6.87695822 35.68456268 -3.09301005 13.96252313 -3 2 C-2.01 2 -1.02 2 0 2 C0 1.34 0 0.68 0 0 Z " fill="#020202" transform="translate(133,126)"/>
<path d="M0 0 C0.04939701 5.92650126 0.08571817 11.85288297 0.10986328 17.77954102 C0.11992773 19.79616381 0.13358047 21.81277199 0.15087891 23.8293457 C0.17510769 26.72611089 0.18647859 29.62268331 0.1953125 32.51953125 C0.20563507 33.42274612 0.21595764 34.325961 0.22659302 35.25654602 C0.22674408 36.09719101 0.22689514 36.937836 0.22705078 37.80395508 C0.231492 38.54341873 0.23593323 39.28288239 0.24050903 40.04475403 C0 42 0 42 -2 45 C-4.3125 44.9375 -4.3125 44.9375 -7 44 C-10.92900112 37.77675946 -10.39162388 31.1523973 -10.28125 23.98413086 C-10.25002449 21.93910398 -10.24026129 19.89485151 -10.234375 17.84960938 C-10.13975224 5.89757172 -10.13975224 5.89757172 -9 1 C-6.04335481 -0.4783226 -3.25770263 -0.06032783 0 0 Z " fill="#010101" transform="translate(97,127)"/>
<path d="M0 0 C0.9765625 2.63671875 0.9765625 2.63671875 1.953125 5.2734375 C3.32918034 7.54290191 4.52729892 8.08947469 7 9 C11.70209259 9.7352363 15.19899553 9.38619858 19.5 7.3125 C22.21677989 4.7994786 22.79803569 3.63535761 23 0 C26.89075454 1.29691818 29.52462743 2.66776769 32 6 C32.0625 8.5 32.0625 8.5 31 11 C25.13091709 16.70605282 19.50749927 17.36282879 11.6875 17.375 C10.87087891 17.39949219 10.05425781 17.42398438 9.21289062 17.44921875 C3.30573305 17.47746014 -1.04590507 16.26353736 -6 13 C-8 11 -8 11 -8.5 8.1875 C-7.95779256 4.73092759 -7.64481938 4.28221122 -5.125 2.125 C-2 0 -2 0 0 0 Z " fill="#F6F6F6" transform="translate(93,74)"/>
<path d="M0 0 C0.66 0 1.32 0 2 0 C2 3.3 2 6.6 2 10 C0.35 10.33 -1.3 10.66 -3 11 C-3.33 12.32 -3.66 13.64 -4 15 C-4 11.37 -4 7.74 -4 4 C-3.01 3.67 -2.02 3.34 -1 3 C-0.67 2.01 -0.34 1.02 0 0 Z " fill="#101010" transform="translate(70,117)"/>
<path d="M0 0 C0.70125 0.4125 1.4025 0.825 2.125 1.25 C2.125 3.56 2.125 5.87 2.125 8.25 C0.125 7.25 0.125 7.25 -0.875 4.25 C-1.205 5.24 -1.535 6.23 -1.875 7.25 C-1.875 5.6 -1.875 3.95 -1.875 2.25 C-2.205 3.9 -2.535 5.55 -2.875 7.25 C-3.535 6.26 -4.195 5.27 -4.875 4.25 C-5.865 7.22 -6.855 10.19 -7.875 13.25 C-8.205 13.25 -8.535 13.25 -8.875 13.25 C-9.22544155 9.84941904 -9.38862894 6.63889198 -8.875 3.25 C-5.78031128 0.08334177 -4.38638671 -1.14427479 0 0 Z " fill="#1E1E1E" transform="translate(115.875,118.75)"/>
<path d="M0 0 C1.66611905 -0.042721 3.33382885 -0.04063832 5 0 C6 1 6 1 6.125 4 C6 7 6 7 5 8 C3.33382885 8.04063832 1.66611905 8.042721 0 8 C0 5.36 0 2.72 0 0 Z " fill="#737373" transform="translate(83,206)"/>
<path d="M0 0 C0.33 0 0.66 0 1 0 C1 3.63 1 7.26 1 11 C-0.65 10.67 -2.3 10.34 -4 10 C-4.625 7.625 -4.625 7.625 -5 5 C-4.34 4.34 -3.68 3.68 -3 3 C-2.01 3 -1.02 3 0 3 C0 2.01 0 1.02 0 0 Z " fill="#1D1D1D" transform="translate(139,117)"/>
<path d="M0 0 C3.875 0.875 3.875 0.875 5 2 C5.04080783 3.99958364 5.04254356 6.00045254 5 8 C3.35 8 1.7 8 0 8 C0 9.98 0 11.96 0 14 C-0.33 14 -0.66 14 -1 14 C-1 11.36 -1 8.72 -1 6 C0.32 6 1.64 6 3 6 C3 5.01 3 4.02 3 3 C2.01 2.67 1.02 2.34 0 2 C0 1.34 0 0.68 0 0 Z " fill="#1D1D1D" transform="translate(88,120)"/>
<path d="M0 0 C0.66 0.66 1.32 1.32 2 2 C5.08347826 2.16681109 5.08347826 2.16681109 8 2 C8.33 3.32 8.66 4.64 9 6 C8.01 5.67 7.02 5.34 6 5 C5.67 5.33 5.34 5.66 5 6 C3.33382885 6.04063832 1.66611905 6.042721 0 6 C0 4.02 0 2.04 0 0 Z " fill="#AFAFB0" transform="translate(101,221)"/>
<path d="M0 0 C1.32 0.33 2.64 0.66 4 1 C4 2.65 4 4.3 4 6 C2.35 6 0.7 6 -1 6 C-1 5.01 -1 4.02 -1 3 C-1.66 3 -2.32 3 -3 3 C-3.33 3.99 -3.66 4.98 -4 6 C-4 4.68 -4 3.36 -4 2 C-2.68 2 -1.36 2 0 2 C0 1.34 0 0.68 0 0 Z " fill="#AFAFAF" transform="translate(89,221)"/>
<path d="M0 0 C3 0 3 0 5 1 C5 2.32 5 3.64 5 5 C3.02 5 1.04 5 -1 5 C-1 1 -1 1 0 0 Z " fill="#B7B7B7" transform="translate(134,222)"/>
<path d="M0 0 C0.66 0.33 1.32 0.66 2 1 C2.99 1.33 3.98 1.66 5 2 C5 3.32 5 4.64 5 6 C3.02 6 1.04 6 -1 6 C-1.042721 4.33388095 -1.04063832 2.66617115 -1 1 C-0.67 0.67 -0.34 0.34 0 0 Z " fill="#AEAEAE" transform="translate(64,221)"/>
<path d="M0 0 C0.66 0 1.32 0 2 0 C1.40075776 4.19469571 0.42500059 8.00999834 -1 12 C-1.33 12 -1.66 12 -2 12 C-2.05395478 10.37536158 -2.09277195 8.75021459 -2.125 7.125 C-2.14820312 6.22007813 -2.17140625 5.31515625 -2.1953125 4.3828125 C-2 2 -2 2 0 0 Z " fill="#313131" transform="translate(109,120)"/>
<path d="M0 0 C2.5654594 2.5654594 2.54046087 4.47686668 3 8 C2.67 7.34 2.34 6.68 2 6 C0.35 6.66 -1.3 7.32 -3 8 C-1.125 1.125 -1.125 1.125 0 0 Z " fill="#8B8B8B" transform="translate(106,206)"/>
<path d="M0 0 C1.98 0 3.96 0 6 0 C5.67 1.32 5.34 2.64 5 4 C5 3.01 5 2.02 5 1 C4.34 1 3.68 1 3 1 C3 1.99 3 2.98 3 4 C1.35 4 -0.3 4 -2 4 C-1.34 2.68 -0.68 1.36 0 0 Z " fill="#A7A7A7" transform="translate(119,223)"/>
<path d="M0 0 C1.32 0.33 2.64 0.66 4 1 C3.67 2.65 3.34 4.3 3 6 C2.01 6 1.02 6 0 6 C0 4.02 0 2.04 0 0 Z " fill="#FEFEFE" transform="translate(84,207)"/>
<path d="M0 0 C0.66 0 1.32 0 2 0 C1.67 2.31 1.34 4.62 1 7 C0.01 7.33 -0.98 7.66 -2 8 C-2.125 5.125 -2.125 5.125 -2 2 C-1.34 1.34 -0.68 0.68 0 0 Z " fill="#171717" transform="translate(75,120)"/>
<path d="M0 0 C1.65 0 3.3 0 5 0 C4.01 0.33 3.02 0.66 2 1 C2 1.99 2 2.98 2 4 C2.66 4.33 3.32 4.66 4 5 C3.34 5 2.68 5 2 5 C2 5.99 2 6.98 2 8 C1.34 8 0.68 8 0 8 C0 5.36 0 2.72 0 0 Z " fill="#979797" transform="translate(113,206)"/>
<path d="M0 0 C1.98 0.99 1.98 0.99 4 2 C3.01 2 2.02 2 1 2 C2.485 2.99 2.485 2.99 4 4 C4 5.32 4 6.64 4 8 C2.68 8 1.36 8 0 8 C0 5.36 0 2.72 0 0 Z " fill="#0C0C0C" transform="translate(113,120)"/>
<path d="M0 0 C0.99 0 1.98 0 3 0 C3 0.66 3 1.32 3 2 C2.34 2 1.68 2 1 2 C1 5.3 1 8.6 1 12 C0.67 12 0.34 12 0 12 C-0.19401633 10.18818595 -0.38004375 8.37551468 -0.5625 6.5625 C-0.66691406 5.55316406 -0.77132812 4.54382813 -0.87890625 3.50390625 C-0.91886719 2.67761719 -0.95882812 1.85132812 -1 1 C-0.67 0.67 -0.34 0.34 0 0 Z " fill="#292929" transform="translate(119,113)"/>
<path d="M0 0 C0.66 0.33 1.32 0.66 2 1 C2 2.65 2 4.3 2 6 C1.01 6.33 0.02 6.66 -1 7 C-1.04254356 5.00045254 -1.04080783 2.99958364 -1 1 C-0.67 0.67 -0.34 0.34 0 0 Z " fill="#161616" transform="translate(95,121)"/>
<path d="M0 0 C0.66 0 1.32 0 2 0 C2 2.97 2 5.94 2 9 C0 8 0 8 -0.6875 6.1875 C-1.02688538 3.81180233 -0.72856341 2.26664171 0 0 Z " fill="#1E1E1E" transform="translate(70,117)"/>
</svg>
