<?xml version="1.0" encoding="UTF-8"?>
<svg version="1.1" xmlns="http://www.w3.org/2000/svg" width="225" height="225">
<path d="M0 0 C74.25 0 148.5 0 225 0 C225 74.25 225 148.5 225 225 C150.75 225 76.5 225 0 225 C0 150.75 0 76.5 0 0 Z " fill="#FCFCFC" transform="translate(0,0)"/>
<path d="M0 0 C2.97 0 5.94 0 9 0 C9 8.58 9 17.16 9 26 C10.65 26 12.3 26 14 26 C14 22.7 14 19.4 14 16 C16.97 16 19.94 16 23 16 C23 29.2 23 42.4 23 56 C42.47 56 61.94 56 82 56 C82.31780402 43.41902144 82.31780402 43.41902144 81 31 C80.34 31.33 79.68 31.66 79 32 C78.67 32.99 78.34 33.98 78 35 C76.35 34.67 74.7 34.34 73 34 C73 31 73 31 74 30 C73.01 29.34 72.02 28.68 71 28 C71 29.32 71 30.64 71 32 C69.35 32 67.7 32 66 32 C66 30.02 66 28.04 66 26 C67.98 25.505 67.98 25.505 70 25 C69.67 24.01 69.34 23.02 69 22 C70.65 22.33 72.3 22.66 74 23 C74.33 22.34 74.66 21.68 75 21 C74.38125 20.896875 73.7625 20.79375 73.125 20.6875 C71 20 71 20 69 17 C70.98 17.33 72.96 17.66 75 18 C75 16.35 75 14.7 75 13 C76.98 13.99 78.96 14.98 81 16 C82.35618499 14.87465895 82.35618499 14.87465895 82.0625 11.9375 C82.0315625 10.4834375 82.0315625 10.4834375 82 9 C85.16115776 10.36983503 85.9927092 10.9890638 88 14 C88.33 13.67 88.66 13.34 89 13 C88.01 12.505 88.01 12.505 87 12 C87 10.35 87 8.7 87 7 C87.61875 6.938125 88.2375 6.87625 88.875 6.8125 C91.27761141 6.171081 91.27761141 6.171081 92.25 3.4375 C92.62125 2.2309375 92.62125 2.2309375 93 1 C93.66 1 94.32 1 95 1 C95 3.31 95 5.62 95 8 C95.66 8 96.32 8 97 8 C97.99 9.98 97.99 9.98 99 12 C100.32 11.67 101.64 11.34 103 11 C102.67 12.65 102.34 14.3 102 16 C102.99 16 103.98 16 105 16 C105 16.99 105 17.98 105 19 C105.99 19 106.98 19 108 19 C108 19.99 108 20.98 108 22 C109.32 22.33 110.64 22.66 112 23 C112 23.66 112 24.32 112 25 C108.97580475 24.41196203 105.98241547 23.77321882 103 23 C103 22.01 103 21.02 103 20 C102.01 20 101.02 20 100 20 C100.33 18.68 100.66 17.36 101 16 C100.34 16 99.68 16 99 16 C99 17.65 99 19.3 99 21 C99.99 21.33 100.98 21.66 102 22 C102 22.66 102 23.32 102 24 C103.32 24 104.64 24 106 24 C106.66666667 26.66666667 107.33333333 29.33333333 108 32 C107.01 32.495 107.01 32.495 106 33 C106.33 33.99 106.66 34.98 107 36 C104.03 35.505 104.03 35.505 101 35 C101 34.34 101 33.68 101 33 C99.68 32.67 98.36 32.34 97 32 C97.66 30.68 98.32 29.36 99 28 C98.34 27.67 97.68 27.34 97 27 C97 25.68 97 24.36 97 23 C96.01 23 95.02 23 94 23 C94.020625 22.195625 94.04125 21.39125 94.0625 20.5625 C94.29633621 18.06645115 94.29633621 18.06645115 93 17 C92.896875 17.61875 92.79375 18.2375 92.6875 18.875 C92 21 92 21 89 23 C88.26656572 26.06556598 88.26656572 26.06556598 88 29 C90.475 27.02 90.475 27.02 93 25 C92.67 26.65 92.34 28.3 92 30 C93.98 28.515 93.98 28.515 96 27 C95.34 28.32 94.68 29.64 94 31 C94.66 31 95.32 31 96 31 C95.67 31.99 95.34 32.98 95 34 C93.35 34.66 91.7 35.32 90 36 C89.67 42.6 89.34 49.2 89 56 C96.92 56 104.84 56 113 56 C113 56.66 113 57.32 113 58 C82.97 58 52.94 58 22 58 C22 44.47 22 30.94 22 17 C19.69 17 17.38 17 15 17 C15 20.3 15 23.6 15 27 C12.69 27 10.38 27 8 27 C8 18.42 8 9.84 8 1 C5.69 1 3.38 1 1 1 C1 12.55 1 24.1 1 36 C-0.98 36 -2.96 36 -5 36 C-5 32.7 -5 29.4 -5 26 C-5.66 26 -6.32 26 -7 26 C-7 27.32 -7 28.64 -7 30 C-8.98 30 -10.96 30 -13 30 C-13 26.04 -13 22.08 -13 18 C-13.99 18 -14.98 18 -16 18 C-16 23.28 -16 28.56 -16 34 C-17.32 34 -18.64 34 -20 34 C-20 25.42 -20 16.84 -20 8 C-22.64 8 -25.28 8 -28 8 C-28 11.3 -28 14.6 -28 18 C-29.32 18 -30.64 18 -32 18 C-32 21.96 -32 25.92 -32 30 C-33.98 30 -35.96 30 -38 30 C-38 26.37 -38 22.74 -38 19 C-40.97 19 -43.94 19 -47 19 C-47 22.63 -47 26.26 -47 30 C-48.65 30.33 -50.3 30.66 -52 31 C-52 27.37 -52 23.74 -52 20 C-52.99 20 -53.98 20 -55 20 C-55 21.32 -55 22.64 -55 24 C-56.65 24 -58.3 24 -60 24 C-60 20.37 -60 16.74 -60 13 C-61.32 13 -62.64 13 -64 13 C-64 17.95 -64 22.9 -64 28 C-65.32 28 -66.64 28 -68 28 C-68 19.75 -68 11.5 -68 3 C-70.64 3 -73.28 3 -76 3 C-76 6.3 -76 9.6 -76 13 C-77.32 13 -78.64 13 -80 13 C-80 20.59 -80 28.18 -80 36 C-80.33 36 -80.66 36 -81 36 C-81 27.75 -81 19.5 -81 11 C-79.68 11 -78.36 11 -77 11 C-77 8.03 -77 5.06 -77 2 C-73.37 2 -69.74 2 -66 2 C-65.67 5.3 -65.34 8.6 -65 12 C-63.02 12 -61.04 12 -59 12 C-59 15.63 -59 19.26 -59 23 C-58.34 23 -57.68 23 -57 23 C-57 21.68 -57 20.36 -57 19 C-55.02 19 -53.04 19 -51 19 C-51 22.3 -51 25.6 -51 29 C-50.01 29 -49.02 29 -48 29 C-48 25.04 -48 21.08 -48 17 C-39.50390625 16.90234375 -39.50390625 16.90234375 -37 17 C-36 18 -36 18 -35.90234375 20.28515625 C-35.91394531 21.20167969 -35.92554688 22.11820313 -35.9375 23.0625 C-35.94652344 23.98160156 -35.95554688 24.90070313 -35.96484375 25.84765625 C-35.97644531 26.55792969 -35.98804688 27.26820312 -36 28 C-35.34 28 -34.68 28 -34 28 C-34 24.37 -34 20.74 -34 17 C-32.68 16.67 -31.36 16.34 -30 16 C-29.67 13.03 -29.34 10.06 -29 7 C-25.7 7 -22.4 7 -19 7 C-19 15.25 -19 23.5 -19 32 C-18.34 32 -17.68 32 -17 32 C-17 27.05 -17 22.1 -17 17 C-15.02 17 -13.04 17 -11 17 C-11 20.63 -11 24.26 -11 28 C-10.34 28 -9.68 28 -9 28 C-9 26.68 -9 25.36 -9 24 C-7.02 24 -5.04 24 -3 24 C-3 27.63 -3 31.26 -3 35 C-2.01 35 -1.02 35 0 35 C0 23.45 0 11.9 0 0 Z " fill="#DADCB1" transform="translate(97,71)"/>
<path d="M0 0 C2.97 0 5.94 0 9 0 C9 8.58 9 17.16 9 26 C10.65 26 12.3 26 14 26 C14 22.7 14 19.4 14 16 C16.97 16 19.94 16 23 16 C23 29.2 23 42.4 23 56 C52.7 56 82.4 56 113 56 C113 56.66 113 57.32 113 58 C82.97 58 52.94 58 22 58 C22 44.47 22 30.94 22 17 C19.69 17 17.38 17 15 17 C15 20.3 15 23.6 15 27 C12.69 27 10.38 27 8 27 C8 18.42 8 9.84 8 1 C5.69 1 3.38 1 1 1 C1 12.55 1 24.1 1 36 C-0.98 36 -2.96 36 -5 36 C-5 32.7 -5 29.4 -5 26 C-5.66 26 -6.32 26 -7 26 C-7 27.32 -7 28.64 -7 30 C-8.98 30 -10.96 30 -13 30 C-13 26.04 -13 22.08 -13 18 C-13.99 18 -14.98 18 -16 18 C-16 23.28 -16 28.56 -16 34 C-17.32 34 -18.64 34 -20 34 C-20 25.42 -20 16.84 -20 8 C-22.64 8 -25.28 8 -28 8 C-28 11.3 -28 14.6 -28 18 C-29.32 18 -30.64 18 -32 18 C-32 21.96 -32 25.92 -32 30 C-33.98 30 -35.96 30 -38 30 C-38 26.37 -38 22.74 -38 19 C-40.97 19 -43.94 19 -47 19 C-47 22.63 -47 26.26 -47 30 C-48.65 30.33 -50.3 30.66 -52 31 C-52 27.37 -52 23.74 -52 20 C-52.99 20 -53.98 20 -55 20 C-55 21.32 -55 22.64 -55 24 C-56.65 24 -58.3 24 -60 24 C-60 20.37 -60 16.74 -60 13 C-61.32 13 -62.64 13 -64 13 C-64 17.95 -64 22.9 -64 28 C-65.32 28 -66.64 28 -68 28 C-68 19.75 -68 11.5 -68 3 C-70.64 3 -73.28 3 -76 3 C-76 6.3 -76 9.6 -76 13 C-77.32 13 -78.64 13 -80 13 C-80 20.59 -80 28.18 -80 36 C-80.33 36 -80.66 36 -81 36 C-81 27.75 -81 19.5 -81 11 C-79.68 11 -78.36 11 -77 11 C-77 8.03 -77 5.06 -77 2 C-73.37 2 -69.74 2 -66 2 C-65.67 5.3 -65.34 8.6 -65 12 C-63.02 12 -61.04 12 -59 12 C-59 15.63 -59 19.26 -59 23 C-58.34 23 -57.68 23 -57 23 C-57 21.68 -57 20.36 -57 19 C-55.02 19 -53.04 19 -51 19 C-51 22.3 -51 25.6 -51 29 C-50.01 29 -49.02 29 -48 29 C-48 25.04 -48 21.08 -48 17 C-39.50390625 16.90234375 -39.50390625 16.90234375 -37 17 C-36 18 -36 18 -35.90234375 20.28515625 C-35.91394531 21.20167969 -35.92554688 22.11820313 -35.9375 23.0625 C-35.94652344 23.98160156 -35.95554688 24.90070313 -35.96484375 25.84765625 C-35.97644531 26.55792969 -35.98804688 27.26820312 -36 28 C-35.34 28 -34.68 28 -34 28 C-34 24.37 -34 20.74 -34 17 C-32.68 16.67 -31.36 16.34 -30 16 C-29.67 13.03 -29.34 10.06 -29 7 C-25.7 7 -22.4 7 -19 7 C-19 15.25 -19 23.5 -19 32 C-18.34 32 -17.68 32 -17 32 C-17 27.05 -17 22.1 -17 17 C-15.02 17 -13.04 17 -11 17 C-11 20.63 -11 24.26 -11 28 C-10.34 28 -9.68 28 -9 28 C-9 26.68 -9 25.36 -9 24 C-7.02 24 -5.04 24 -3 24 C-3 27.63 -3 31.26 -3 35 C-2.01 35 -1.02 35 0 35 C0 23.45 0 11.9 0 0 Z " fill="#191919" transform="translate(97,71)"/>
<path d="M0 0 C0.33 0.66 0.66 1.32 1 2 C1.99 2.33 2.98 2.66 4 3 C3.01 4.485 3.01 4.485 2 6 C4.475 6.495 4.475 6.495 7 7 C7 6.01 7 5.02 7 4 C7.99 4 8.98 4 10 4 C12.30768504 8.57888494 12.26855798 12.62500268 12.1875 17.625 C12.18685547 18.388125 12.18621094 19.15125 12.18554688 19.9375 C12.15975172 23.20488579 12.03955395 25.88133815 11 29 C2.75 29 -5.5 29 -14 29 C-14 27.35 -14 25.7 -14 24 C-15.32 23.67 -16.64 23.34 -18 23 C-18 22.01 -18 21.02 -18 20 C-16.68 19.67 -15.36 19.34 -14 19 C-14.66 18.67 -15.32 18.34 -16 18 C-15.67 14.37 -15.34 10.74 -15 7 C-14.34 7 -13.68 7 -13 7 C-13 5.68 -13 4.36 -13 3 C-12.01 3 -11.02 3 -10 3 C-9.67 3.66 -9.34 4.32 -9 5 C-6.03 5 -3.06 5 0 5 C-0.33 3.68 -0.66 2.36 -1 1 C-0.67 0.67 -0.34 0.34 0 0 Z " fill="#F6F9F2" transform="translate(168,98)"/>
<path d="M0 0 C0.33 0 0.66 0 1 0 C1 1.65 1 3.3 1 5 C2.65 3.68 4.3 2.36 6 1 C5.67 2.65 5.34 4.3 5 6 C6.32 5.01 7.64 4.02 9 3 C8.34 4.32 7.68 5.64 7 7 C7.66 7 8.32 7 9 7 C8.67 7.99 8.34 8.98 8 10 C6.35 10.66 4.7 11.32 3 12 C2.67 18.6 2.34 25.2 2 32 C-0.31 32 -2.62 32 -5 32 C-4.98428955 31.42556152 -4.9685791 30.85112305 -4.95239258 30.25927734 C-4.88964487 27.63128691 -4.85088494 25.00345463 -4.8125 22.375 C-4.78736328 21.47136719 -4.76222656 20.56773438 -4.73632812 19.63671875 C-4.67721671 14.23787601 -5.14737169 10.74689331 -8 6 C-8 5.34 -8 4.68 -8 4 C-7.34 4 -6.68 4 -6 4 C-5.67 4.66 -5.34 5.32 -5 6 C-4.01 6 -3.02 6 -2 6 C-1.34 4.02 -0.68 2.04 0 0 Z " fill="#A47A2E" transform="translate(184,95)"/>
<path d="M0 0 C0.66 0 1.32 0 2 0 C3.83944626 3.95552103 5.67051553 7.91486285 7.5 11.875 C8.02464844 13.00292969 8.54929688 14.13085938 9.08984375 15.29296875 C9.58613281 16.36933594 10.08242187 17.44570312 10.59375 18.5546875 C11.05458984 19.54968262 11.51542969 20.54467773 11.99023438 21.56982422 C13 24 13 24 13 26 C12.01 26 11.02 26 10 26 C8.515 22.535 8.515 22.535 7 19 C3.04 19 -0.92 19 -5 19 C-5.99 21.31 -6.98 23.62 -8 26 C-8.99 26 -9.98 26 -11 26 C-9.28137532 20.31531835 -6.8358325 15.01576119 -4.375 9.625 C-3.95476562 8.69816406 -3.53453125 7.77132812 -3.1015625 6.81640625 C-2.07035118 4.54305401 -1.03643137 2.27097594 0 0 Z " fill="#3DB0D6" transform="translate(190,136)"/>
<path d="M0 0 C5.78470633 7.71294178 9.90015923 16.88282125 13 26 C11.109375 25.69140625 11.109375 25.69140625 9 25 C7.25 21.9375 7.25 21.9375 6 19 C2.37 19 -1.26 19 -5 19 C-6.32 21.31 -7.64 23.62 -9 26 C-9.99 25.67 -10.98 25.34 -12 25 C-8.04 16.75 -4.08 8.5 0 0 Z " fill="#1EA7D5" transform="translate(146,136)"/>
<path d="M0 0 C2.27455645 2.85547875 3.93034657 5.68281607 5.48046875 8.984375 C5.92197266 9.91894531 6.36347656 10.85351562 6.81835938 11.81640625 C7.27017578 12.78449219 7.72199219 13.75257812 8.1875 14.75 C8.65091797 15.73355469 9.11433594 16.71710938 9.59179688 17.73046875 C10.73192565 20.15177315 11.86783065 22.57496629 13 25 C12.01 25.33 11.02 25.66 10 26 C6 19.25 6 19.25 6 17 C2.04 17 -1.92 17 -6 17 C-6.12375 17.928125 -6.2475 18.85625 -6.375 19.8125 C-7 23 -7 23 -9 26 C-9.99 26 -10.98 26 -12 26 C-10.34176227 20.46347949 -7.92776074 15.38439485 -5.4375 10.1875 C-5.02564453 9.31673828 -4.61378906 8.44597656 -4.18945312 7.54882812 C-1.13502139 1.13502139 -1.13502139 1.13502139 0 0 Z " fill="#1BA865" transform="translate(51,112)"/>
<path d="M0 0 C3.31580994 4.20360092 5.41880521 8.73926212 7.6875 13.5625 C8.10322266 14.42552734 8.51894531 15.28855469 8.94726562 16.17773438 C9.33978516 17.00724609 9.73230469 17.83675781 10.13671875 18.69140625 C10.67365356 19.82364624 10.67365356 19.82364624 11.22143555 20.97875977 C12 23 12 23 12 26 C11.01 25.67 10.02 25.34 9 25 C7.3125 21.4375 7.3125 21.4375 6 18 C2.04 17.67 -1.92 17.34 -6 17 C-6.99 19.97 -7.98 22.94 -9 26 C-9.99 26 -10.98 26 -12 26 C-10.34176227 20.46347949 -7.92776074 15.38439485 -5.4375 10.1875 C-5.02564453 9.31673828 -4.61378906 8.44597656 -4.18945312 7.54882812 C-1.13502139 1.13502139 -1.13502139 1.13502139 0 0 Z " fill="#17A761" transform="translate(78,112)"/>
<path d="M0 0 C1.32 0.66 2.64 1.32 4 2 C4 2.99 4 3.98 4 5 C3.01 5 2.02 5 1 5 C1.474375 5.721875 1.94875 6.44375 2.4375 7.1875 C5.16824518 12.10284133 5.14236853 15.54201702 4 21 C2.1875 21.6875 2.1875 21.6875 0 22 C-1.75 20.5625 -1.75 20.5625 -3 19 C-2.34 18.34 -1.68 17.68 -1 17 C-1.99 16.34 -2.98 15.68 -4 15 C-4 16.32 -4 17.64 -4 19 C-5.65 19 -7.3 19 -9 19 C-9 17.02 -9 15.04 -9 13 C-7.68 12.67 -6.36 12.34 -5 12 C-5.33 11.01 -5.66 10.02 -6 9 C-4.35 9.33 -2.7 9.66 -1 10 C-0.67 9.34 -0.34 8.68 0 8 C-0.61875 7.896875 -1.2375 7.79375 -1.875 7.6875 C-4 7 -4 7 -6 4 C-3.03 4.495 -3.03 4.495 0 5 C0 3.35 0 1.7 0 0 Z " fill="#97ABA1" transform="translate(172,84)"/>
<path d="M0 0 C2.7385669 1.0041412 3.81209575 1.66177234 5.25 4.25 C6.08062853 7.29563793 6.06555748 9.85324113 6 13 C6.2475 13.86625 6.495 14.7325 6.75 15.625 C7 18 7 18 5.3125 20.375 C3 22 3 22 0.9375 22.1875 C-2.15951839 20.28932744 -2.72768882 17.2964426 -4 14 C-4.66 13.34 -5.32 12.68 -6 12 C-6 11.01 -6 10.02 -6 9 C-5.01 9 -4.02 9 -3 9 C-2.67 8.34 -2.34 7.68 -2 7 C-1.34 6.67 -0.68 6.34 0 6 C0 4.02 0 2.04 0 0 Z " fill="#E7EDE1" transform="translate(179,80)"/>
<path d="M0 0 C4.29 0 8.58 0 13 0 C13 0.99 13 1.98 13 3 C9.7 3 6.4 3 3 3 C3 5.64 3 8.28 3 11 C6.3 11 9.6 11 13 11 C13 11.99 13 12.98 13 14 C9.7 14 6.4 14 3 14 C3 18.29 3 22.58 3 27 C2.01 27 1.02 27 0 27 C0 18.09 0 9.18 0 0 Z " fill="#33ADD7" transform="translate(163,136)"/>
<path d="M0 0 C2.3125 2.5 2.3125 2.5 4 5 C0.72724974 5 -1.846632 4.70074844 -5 4 C-5.37673137 6.33648631 -5.37673137 6.33648631 -5 9 C-3.03622415 11.08756372 -3.03622415 11.08756372 -0.5 12.875 C3.89472567 16.5488243 3.89472567 16.5488243 4.875 20.75 C4 24 4 24 1.875 26.5 C-1 28 -1 28 -4.0625 28.0625 C-7.64829063 26.7655119 -8.91298695 25.13051957 -11 22 C-10.01 21.67 -9.02 21.34 -8 21 C-7.62875 21.495 -7.2575 21.99 -6.875 22.5 C-4.25305607 24.59755514 -2.26157528 24.21743835 1 24 C1.37178989 21.6766465 1.37178989 21.6766465 1 19 C-0.91359666 16.73586961 -0.91359666 16.73586961 -3.4375 14.8125 C-8.85319863 10.37993289 -8.85319863 10.37993289 -9.3125 6.0625 C-9 3 -9 3 -7.3125 1.125 C-4.50708538 -0.2397963 -3.07464712 -0.61492942 0 0 Z " fill="#12A75F" transform="translate(31,111)"/>
<path d="M0 0 C0.99 0 1.98 0 3 0 C3.33 2.31 3.66 4.62 4 7 C4.66 7 5.32 7 6 7 C6 7.66 6 8.32 6 9 C5.34 9 4.68 9 4 9 C4.01160156 9.65226562 4.02320313 10.30453125 4.03515625 10.9765625 C4.08470994 15.7761914 3.99413751 20.27784685 3 25 C1.68 25.33 0.36 25.66 -1 26 C-1 24.35 -1 22.7 -1 21 C-2.32 20.67 -3.64 20.34 -5 20 C-5 19.01 -5 18.02 -5 17 C-3.68 16.67 -2.36 16.34 -1 16 C-1.66 15.67 -2.32 15.34 -3 15 C-2.67 11.37 -2.34 7.74 -2 4 C-1.34 4 -0.68 4 0 4 C0 2.68 0 1.36 0 0 Z " fill="#B4D791" transform="translate(155,101)"/>
<path d="M0 0 C1.9375 2 1.9375 2 3 4 C-0.11257569 4 -2.10765685 3.82638376 -5 3 C-5.88983923 5.29247213 -5.88983923 5.29247213 -6 8 C-4.17287339 10.14582053 -4.17287339 10.14582053 -1.625 11.9375 C2.85341039 15.66017864 2.85341039 15.66017864 4.375 19.1875 C4 22 4 22 1.9375 24.875 C-1 27 -1 27 -4.0625 27.5625 C-7.5774153 26.88943111 -8.77613628 25.73706304 -11 23 C-10.505 21.515 -10.505 21.515 -10 20 C-9.62875 20.495 -9.2575 20.99 -8.875 21.5 C-6.25305607 23.59755514 -4.26157528 23.21743835 -1 23 C-0.11069873 20.70476626 -0.11069873 20.70476626 0 18 C-1.83027334 15.88935099 -1.83027334 15.88935099 -4.375 14.125 C-9.62370912 9.80012909 -9.62370912 9.80012909 -10.25 6.1875 C-10 3 -10 3 -9 1.0625 C-5.8665055 -0.60216895 -3.47383326 -0.43422916 0 0 Z " fill="#1AA7D5" transform="translate(127,136)"/>
<path d="M0 0 C3.3 0 6.6 0 10 0 C10 8.25 10 16.5 10 25 C10.66 25 11.32 25 12 25 C12 20.05 12 15.1 12 10 C13.98 10 15.96 10 18 10 C18 13.63 18 17.26 18 21 C18.66 21 19.32 21 20 21 C20 19.68 20 18.36 20 17 C21.98 17 23.96 17 26 17 C25.67 20.96 25.34 24.92 25 29 C24.67 29 24.34 29 24 29 C24 25.7 24 22.4 24 19 C23.34 19 22.68 19 22 19 C22 20.32 22 21.64 22 23 C20.02 23 18.04 23 16 23 C16 19.04 16 15.08 16 11 C15.01 11 14.02 11 13 11 C13 16.28 13 21.56 13 27 C11.68 27 10.36 27 9 27 C9 18.42 9 9.84 9 1 C6.36 1 3.72 1 1 1 C1 4.3 1 7.6 1 11 C-0.65 11 -2.3 11 -4 11 C-3.01 10.34 -2.02 9.68 -1 9 C-0.42006301 6.80545319 -0.42006301 6.80545319 -0.3125 4.375 C-0.209375 2.93125 -0.10625 1.4875 0 0 Z " fill="#0E0E0E" transform="translate(68,78)"/>
<path d="M0 0 C0.66 0.33 1.32 0.66 2 1 C1.67 2.65 1.34 4.3 1 6 C1.99 6 2.98 6 4 6 C4 7.32 4 8.64 4 10 C5.32 10.33 6.64 10.66 8 11 C7.01 11.66 6.02 12.32 5 13 C5 13.66 5 14.32 5 15 C5.99 15.33 6.98 15.66 8 16 C8 16.66 8 17.32 8 18 C8.66 18.33 9.32 18.66 10 19 C9.67 19.66 9.34 20.32 9 21 C5.28400809 21.20086443 4.22791555 21.1519437 1 19 C0.34 18.67 -0.32 18.34 -1 18 C-0.34 17.34 0.32 16.68 1 16 C0.34 15.67 -0.32 15.34 -1 15 C-0.34 14.01 0.32 13.02 1 12 C0.01 12.66 -0.98 13.32 -2 14 C-2 13.01 -2 12.02 -2 11 C-2.99 11.33 -3.98 11.66 -5 12 C-4.67 10.02 -4.34 8.04 -4 6 C-4.66 5.67 -5.32 5.34 -6 5 C-5.195625 4.731875 -4.39125 4.46375 -3.5625 4.1875 C-2.716875 3.795625 -1.87125 3.40375 -1 3 C-0.67 2.01 -0.34 1.02 0 0 Z " fill="#EEE4B3" transform="translate(190,88)"/>
<path d="M0 0 C0.66 0 1.32 0 2 0 C4.1583195 6.07027358 4.20852314 11.59370576 4 18 C3.34 18 2.68 18 2 18 C2.33 20.31 2.66 22.62 3 25 C1.68 24.67 0.36 24.34 -1 24 C-1 22.02 -1 20.04 -1 18 C-1.66 18 -2.32 18 -3 18 C-2.67 15.03 -2.34 12.06 -2 9 C-2.66 9 -3.32 9 -4 9 C-4 8.34 -4 7.68 -4 7 C-3.34 7 -2.68 7 -2 7 C-2 6.01 -2 5.02 -2 4 C-1.34 4 -0.68 4 0 4 C0 2.68 0 1.36 0 0 Z " fill="#BBDA9A" transform="translate(144,102)"/>
<path d="M0 0 C2.50037734 2.17424117 3.43628586 3.73045798 4 7 C5.32 7 6.64 7 8 7 C9.65 10.96 11.3 14.92 13 19 C11.68 18.67 10.36 18.34 9 18 C8.649375 17.01 8.29875 16.02 7.9375 15 C6.33498543 11.75724348 6.33498543 11.75724348 3.3671875 11.3828125 C0.568979 11.14664657 -2.19233291 11.00953367 -5 11 C-4.35731563 9.35293447 -3.71076198 7.70737825 -3.0625 6.0625 C-2.70285156 5.14597656 -2.34320313 4.22945312 -1.97265625 3.28515625 C-1 1 -1 1 0 0 Z " fill="#39AED6" transform="translate(146,143)"/>
<path d="M0 0 C4.29 0 8.58 0 13 0 C13 0.66 13 1.32 13 2 C9.37 2 5.74 2 2 2 C2 4.97 2 7.94 2 11 C5.63 11 9.26 11 13 11 C13 11.66 13 12.32 13 13 C9.37 13 5.74 13 2 13 C2 17.29 2 21.58 2 26 C1.34 26 0.68 26 0 26 C0 17.42 0 8.84 0 0 Z " fill="#02A155" transform="translate(95,112)"/>
<path d="M0 0 C0.66 0 1.32 0 2 0 C3.83944626 3.95552103 5.67051553 7.91486285 7.5 11.875 C8.02464844 13.00292969 8.54929688 14.13085938 9.08984375 15.29296875 C9.58613281 16.36933594 10.08242187 17.44570312 10.59375 18.5546875 C11.28500977 20.04718018 11.28500977 20.04718018 11.99023438 21.56982422 C13 24 13 24 13 26 C12.01 26 11.02 26 10 26 C9.01 23.36 8.02 20.72 7 18 C3.37 17.67 -0.26 17.34 -4 17 C-4 16.67 -4 16.34 -4 16 C-0.7 16 2.6 16 6 16 C5.34 14.72125 4.68 13.4425 4 12.125 C2 8.25 2 8.25 2 6 C1.34 6 0.68 6 0 6 C-0.33 6.99 -0.66 7.98 -1 9 C-2.0326802 6.21176345 -2.04509293 5.1322726 -1.0625 2.25 C-0.711875 1.5075 -0.36125 0.765 0 0 Z " fill="#25A9D6" transform="translate(190,136)"/>
<path d="M0 0 C0.99 0 1.98 0 3 0 C3 8.58 3 17.16 3 26 C2.01 26 1.02 26 0 26 C0 17.42 0 8.84 0 0 Z " fill="#28AAD9" transform="translate(207,136)"/>
<path d="M0 0 C1.32 0.66 2.64 1.32 4 2 C4 6.29 4 10.58 4 15 C2.68 15 1.36 15 0 15 C-0.33 13.35 -0.66 11.7 -1 10 C-1.33 10 -1.66 10 -2 10 C-1.54177532 6.53058454 -1.10868317 3.32604951 0 0 Z " fill="#9ACC67" transform="translate(132,109)"/>
<path d="M0 0 C1 3 1 3 0.0625 5.1875 C-0.288125 5.785625 -0.63875 6.38375 -1 7 C1.64 7 4.28 7 7 7 C7.33 7.66 7.66 8.32 8 9 C4.37 9 0.74 9 -3 9 C-3.12375 9.928125 -3.2475 10.85625 -3.375 11.8125 C-4 15 -4 15 -6 18 C-6.99 18 -7.98 18 -9 18 C-7.41579353 12.13843607 -4.37339097 4.37339097 0 0 Z " fill="#03A255" transform="translate(48,120)"/>
<path d="M0 0 C0.66 0 1.32 0 2 0 C2 2.31 2 4.62 2 7 C2.66 7.33 3.32 7.66 4 8 C3.01 8.66 2.02 9.32 1 10 C-0.19232613 12.05003955 -0.19232613 12.05003955 -1 14 C-1 13.34 -1 12.68 -1 12 C-2.65 11.67 -4.3 11.34 -6 11 C-6 9.35 -6 7.7 -6 6 C-5.38125 5.938125 -4.7625 5.87625 -4.125 5.8125 C-1.72238859 5.171081 -1.72238859 5.171081 -0.75 2.4375 C-0.5025 1.633125 -0.255 0.82875 0 0 Z " fill="#C1E3E0" transform="translate(190,72)"/>
<path d="M0 0 C0.33 0.99 0.66 1.98 1 3 C0.67 3.66 0.34 4.32 0 5 C3.3 5 6.6 5 10 5 C10 5.99 10 6.98 10 8 C6.04 7.67 2.08 7.34 -2 7 C-2.99 9.97 -3.98 12.94 -5 16 C-5.99 16 -6.98 16 -8 16 C-6.41977816 10.86427902 -4.55407862 5.73901307 -2 1 C-1.34 0.67 -0.68 0.34 0 0 Z " fill="#07A359" transform="translate(74,122)"/>
<path d="M0 0 C0.99 0 1.98 0 3 0 C3.33 1.32 3.66 2.64 4 4 C4.66 4 5.32 4 6 4 C6.33 4.99 6.66 5.98 7 7 C6.34 7 5.68 7 5 7 C5 6.34 5 5.68 5 5 C4.34 5 3.68 5 3 5 C3 8.3 3 11.6 3 15 C2.01 15 1.02 15 0 15 C0 13.02 0 11.04 0 9 C-0.66 9 -1.32 9 -2 9 C-2.25 3.375 -2.25 3.375 0 0 Z " fill="#A1CD74" transform="translate(167,111)"/>
<path d="M0 0 C0.99 0.33 1.98 0.66 3 1 C3.8125 3.6875 3.8125 3.6875 4 7 C1.55795207 10.40406682 0.08958249 11.7998726 -4.0625 12.5625 C-7.5774153 11.88943111 -8.77613628 10.73706304 -11 8 C-10.67 7.01 -10.34 6.02 -10 5 C-9.62875 5.495 -9.2575 5.99 -8.875 6.5 C-6.25305607 8.59755514 -4.26157528 8.21743835 -1 8 C-0.40267181 5.23735711 0 2.83967231 0 0 Z " fill="#29AAD6" transform="translate(127,151)"/>
<path d="M0 0 C0.99 0.33 1.98 0.66 3 1 C3 1.66 3 2.32 3 3 C2.34 3 1.68 3 1 3 C1 3.66 1 4.32 1 5 C1.66 5 2.32 5 3 5 C2.67 7.97 2.34 10.94 2 14 C3.32 14 4.64 14 6 14 C6.33 16.31 6.66 18.62 7 21 C4.69 21 2.38 21 0 21 C0 14.07 0 7.14 0 0 Z " fill="#DBECCA" transform="translate(139,106)"/>
<path d="M0 0 C2.64 0 5.28 0 8 0 C8.33 1.32 8.66 2.64 9 4 C8.01 4.495 8.01 4.495 7 5 C7.33 5.99 7.66 6.98 8 8 C5.03 7.505 5.03 7.505 2 7 C2 6.34 2 5.68 2 5 C0.68 4.67 -0.64 4.34 -2 4 C-1.34 2.68 -0.68 1.36 0 0 Z " fill="#8DABB2" transform="translate(196,99)"/>
<path d="M0 0 C0.33 0 0.66 0 1 0 C1 3.63 1 7.26 1 11 C1.66 11 2.32 11 3 11 C3 9.68 3 8.36 3 7 C4.98 7 6.96 7 9 7 C8.67 10.96 8.34 14.92 8 19 C7.67 19 7.34 19 7 19 C7 15.7 7 12.4 7 9 C6.34 9 5.68 9 5 9 C5 10.32 5 11.64 5 13 C3.02 13 1.04 13 -1 13 C-1.02696365 11.20841511 -1.04637917 9.41671527 -1.0625 7.625 C-1.07410156 6.62726563 -1.08570312 5.62953125 -1.09765625 4.6015625 C-1 2 -1 2 0 0 Z " fill="#5B5B5B" transform="translate(85,88)"/>
<path d="M0 0 C0.66 0 1.32 0 2 0 C1.67 1.65 1.34 3.3 1 5 C3.97 5 6.94 5 10 5 C10 5.33 10 5.66 10 6 C6.7 6 3.4 6 0 6 C-0.28875 6.7425 -0.5775 7.485 -0.875 8.25 C-1.82302644 10.56739797 -2.84845911 12.77917115 -4 15 C-4.99 14.67 -5.98 14.34 -7 14 C-4.69 9.38 -2.38 4.76 0 0 Z " fill="#07A2D5" transform="translate(141,147)"/>
<path d="M0 0 C1.32 0.33 2.64 0.66 4 1 C3.67 6.94 3.34 12.88 3 19 C2.34 19 1.68 19 1 19 C0.01751476 14.9472484 -0.08159574 11.16138263 0 7 C0.66 7 1.32 7 2 7 C2 6.34 2 5.68 2 5 C1.34 5 0.68 5 0 5 C0 3.35 0 1.7 0 0 Z " fill="#EEF4E3" transform="translate(159,103)"/>
<path d="M0 0 C2.475 0.99 2.475 0.99 5 2 C5 3.32 5 4.64 5 6 C3.35 6.33 1.7 6.66 0 7 C0 8.32 0 9.64 0 11 C-1.32 10.67 -2.64 10.34 -4 10 C-4.33 8.35 -4.66 6.7 -5 5 C-3.68 5.33 -2.36 5.66 -1 6 C-0.67 4.02 -0.34 2.04 0 0 Z " fill="#87CFD1" transform="translate(178,73)"/>
<path d="M0 0 C0.99 0 1.98 0 3 0 C3 0.99 3 1.98 3 3 C3.99 3 4.98 3 6 3 C6 3.99 6 4.98 6 6 C7.32 6.33 8.64 6.66 10 7 C10 7.66 10 8.32 10 9 C6.97580475 8.41196203 3.98241547 7.77321882 1 7 C1 6.01 1 5.02 1 4 C0.01 4 -0.98 4 -2 4 C-1.34 2.68 -0.68 1.36 0 0 Z " fill="#B4AE82" transform="translate(199,87)"/>
<path d="M0 0 C0.66 0.66 1.32 1.32 2 2 C1.625 4.625 1.625 4.625 1 7 C1.99 7.33 2.98 7.66 4 8 C3.01 8.66 2.02 9.32 1 10 C0.54625 9.195625 0.0925 8.39125 -0.375 7.5625 C-1.74725665 4.91143428 -1.74725665 4.91143428 -4 4 C-3.67 6.31 -3.34 8.62 -3 11 C-3.99 11.33 -4.98 11.66 -6 12 C-7.65 10.35 -9.3 8.7 -11 7 C-8 7 -8 7 -5 8 C-5.2784375 7.0409375 -5.2784375 7.0409375 -5.5625 6.0625 C-5.706875 5.381875 -5.85125 4.70125 -6 4 C-5 3 -5 3 -2.4375 2.9375 C-1.2309375 2.9684375 -1.2309375 2.9684375 0 3 C0 2.01 0 1.02 0 0 Z " fill="#F4F8F6" transform="translate(183,76)"/>
<path d="M0 0 C2.32472205 2.85306797 3.7508258 5.54074837 5 9 C2.03 9 -0.94 9 -4 9 C-2.94124926 5.59687262 -1.99097846 2.98646769 0 0 Z " fill="#E6F3EE" transform="translate(51,118)"/>
<path d="M0 0 C2.50298434 2.93828597 3.46930939 5.17902761 4 9 C1.36 9 -1.28 9 -4 9 C-2.94124926 5.59687262 -1.99097846 2.98646769 0 0 Z " fill="#E8F4EF" transform="translate(78,118)"/>
<path d="M0 0 C0 0.66 0 1.32 0 2 C1.32 2 2.64 2 4 2 C4 2.99 4 3.98 4 5 C0.62182575 5.84454356 -1.67465243 6.10844919 -5 5 C-5 3.68 -5 2.36 -5 1 C-5.99 0.67 -6.98 0.34 -8 0 C-4.71023192 -1.09658936 -3.28696233 -0.79953138 0 0 Z " fill="#DDDD7C" transform="translate(199,93)"/>
<path d="M0 0 C0.66 0 1.32 0 2 0 C2.99 2.97 3.98 5.94 5 9 C2.36 9 -0.28 9 -3 9 C-2.01 6.03 -1.02 3.06 0 0 Z " fill="#E8F4F7" transform="translate(190,142)"/>
<path d="M0 0 C2.3125 2.5 2.3125 2.5 4 5 C0.72724974 5 -1.846632 4.70074844 -5 4 C-5.66 5.32 -6.32 6.64 -7 8 C-7.66 6.35 -8.32 4.7 -9 3 C-5.99343631 0.32749894 -4.0408387 -0.80816774 0 0 Z " fill="#1FAA69" transform="translate(31,111)"/>
<path d="M0 0 C0.66 0.33 1.32 0.66 2 1 C2 4.96 2 8.92 2 13 C0.02 13 -1.96 13 -4 13 C-3.67 9.04 -3.34 5.08 -3 1 C-2.67 1 -2.34 1 -2 1 C-2 4.3 -2 7.6 -2 11 C-1.34 11 -0.68 11 0 11 C0 7.37 0 3.74 0 0 Z " fill="#5A5A5A" transform="translate(63,88)"/>
<path d="M0 0 C2.83328987 2.83328987 3.7191375 4.35446828 5 8 C2.03 8 -0.94 8 -4 8 C-2.68 5.36 -1.36 2.72 0 0 Z " fill="#EFF7F8" transform="translate(146,143)"/>
<path d="M0 0 C0.66 0.33 1.32 0.66 2 1 C1.979375 1.763125 1.95875 2.52625 1.9375 3.3125 C1.87057159 6.10185786 1.87057159 6.10185786 3 9 C2.34 9 1.68 9 1 9 C1 8.34 1 7.68 1 7 C0.34 7 -0.32 7 -1 7 C-1.66 8.65 -2.32 10.3 -3 12 C-3.66 12 -4.32 12 -5 12 C-4.67 10.02 -4.34 8.04 -4 6 C-4.66 5.67 -5.32 5.34 -6 5 C-5.195625 4.731875 -4.39125 4.46375 -3.5625 4.1875 C-2.716875 3.795625 -1.87125 3.40375 -1 3 C-0.67 2.01 -0.34 1.02 0 0 Z " fill="#F7F8F5" transform="translate(190,88)"/>
<path d="M0 0 C0.99 0 1.98 0 3 0 C2.67 2.97 2.34 5.94 2 9 C0.68 8.67 -0.64 8.34 -2 8 C-1.125 1.125 -1.125 1.125 0 0 Z " fill="#93C85D" transform="translate(186,84)"/>
<path d="M0 0 C4.29 0 8.58 0 13 0 C17 7.75 17 7.75 17 10 C16.01 10 15.02 10 14 10 C13.01 7.36 12.02 4.72 11 2 C7.37 1.67 3.74 1.34 0 1 C0 0.67 0 0.34 0 0 Z " fill="#13A4D7" transform="translate(186,152)"/>
<path d="M0 0 C0.66 0 1.32 0 2 0 C1.67 1.32 1.34 2.64 1 4 C1.99 4 2.98 4 4 4 C4 4.99 4 5.98 4 7 C4.7425 7.12375 5.485 7.2475 6.25 7.375 C8.80141485 7.95486701 10.7267573 8.73708739 13 10 C10.64561267 11.42944945 9.51967567 12.08661261 6.75 11.625 C6.1725 11.41875 5.595 11.2125 5 11 C5.66 11 6.32 11 7 11 C7 10.01 7 9.02 7 8 C5.68 8 4.36 8 3 8 C3 7.34 3 6.68 3 6 C1.68 5.67 0.36 5.34 -1 5 C-0.67 3.35 -0.34 1.7 0 0 Z " fill="#F7F4EF" transform="translate(196,87)"/>
<path d="M0 0 C0.66 0 1.32 0 2 0 C2.391875 0.474375 2.78375 0.94875 3.1875 1.4375 C5.86612359 3.74665826 8.56076032 3.67554343 12 4 C10.875 5.5625 10.875 5.5625 9 7 C6.0625 7 6.0625 7 3 6 C0.625 3.4375 0.625 3.4375 -1 1 C-0.67 0.67 -0.34 0.34 0 0 Z " fill="#1FA966" transform="translate(21,132)"/>
<path d="M0 0 C3.875 1.875 3.875 1.875 5 3 C5.04080783 4.99958364 5.04254356 7.00045254 5 9 C2.525 8.01 2.525 8.01 0 7 C0 4.69 0 2.38 0 0 Z " fill="#92C75B" transform="translate(178,88)"/>
<path d="M0 0 C1.32 0 2.64 0 4 0 C4 2.97 4 5.94 4 9 C3.01 9 2.02 9 1 9 C0.67 6.03 0.34 3.06 0 0 Z " fill="#87C54C" transform="translate(166,117)"/>
<path d="M0 0 C0.66 0.33 1.32 0.66 2 1 C1.5020163 4.73487777 1.12508244 6.81237635 -1 10 C-1.99 10 -2.98 10 -4 10 C-2.8905928 6.51329166 -1.73662334 3.22515763 0 0 Z " fill="#23AB69" transform="translate(43,128)"/>
<path d="M0 0 C0.99 0.33 1.98 0.66 3 1 C3 1.66 3 2.32 3 3 C2.34 3 1.68 3 1 3 C1 3.66 1 4.32 1 5 C1.66 5 2.32 5 3 5 C3 6.98 3 8.96 3 11 C2.01 11.495 2.01 11.495 1 12 C-0.26237731 9.47524538 -0.09856404 7.68799534 -0.0625 4.875 C-0.05347656 3.96492188 -0.04445312 3.05484375 -0.03515625 2.1171875 C-0.02355469 1.41851562 -0.01195312 0.71984375 0 0 Z " fill="#E7F1DC" transform="translate(139,106)"/>
<path d="M0 0 C0.66 0 1.32 0 2 0 C2 1.32 2 2.64 2 4 C3.32 4.33 4.64 4.66 6 5 C1.25 6 1.25 6 -1 6 C-1.99 6.66 -2.98 7.32 -4 8 C-3.67 5.69 -3.34 3.38 -3 1 C-2.34 1 -1.68 1 -1 1 C-1 1.66 -1 2.32 -1 3 C-0.34 3 0.32 3 1 3 C0.67 2.01 0.34 1.02 0 0 Z " fill="#E8E3D4" transform="translate(192,94)"/>
<path d="M0 0 C0.99 0.33 1.98 0.66 3 1 C3.33 2.98 3.66 4.96 4 7 C2.35 7 0.7 7 -1 7 C-1.04254356 5.00045254 -1.04080783 2.99958364 -1 1 C-0.67 0.67 -0.34 0.34 0 0 Z " fill="#79C49B" transform="translate(164,96)"/>
<path d="M0 0 C0.66 0.66 1.32 1.32 2 2 C1.01 4.31 0.02 6.62 -1 9 C-1.99 9 -2.98 9 -4 9 C-2.94124926 5.59687262 -1.99097846 2.98646769 0 0 Z " fill="#15A5D2" transform="translate(183,153)"/>
<path d="M0 0 C1.98 0.99 1.98 0.99 4 2 C4 3.65 4 5.3 4 7 C2.68 6.67 1.36 6.34 0 6 C0 4.02 0 2.04 0 0 Z " fill="#E6DB66" transform="translate(179,80)"/>
<path d="M0 0 C0.66 0 1.32 0 2 0 C2 0.66 2 1.32 2 2 C2.66 2 3.32 2 4 2 C2.74821404 4.50357192 1.00018842 6.06433379 -1 8 C-1.66 7.34 -2.32 6.68 -3 6 C-2.01 4.02 -1.02 2.04 0 0 Z " fill="#29ACD6" transform="translate(144,140)"/>
<path d="M0 0 C1.65 0 3.3 0 5 0 C4.67 1.65 4.34 3.3 4 5 C2.68 4.67 1.36 4.34 0 4 C0 2.68 0 1.36 0 0 Z " fill="#90C557" transform="translate(172,121)"/>
<path d="M0 0 C2.15377564 2.62198774 3.40072174 4.64404172 4 8 C3.01 8.33 2.02 8.66 1 9 C0.01 6.36 -0.98 3.72 -2 1 C-1.34 0.67 -0.68 0.34 0 0 Z " fill="#25AD6C" transform="translate(81,118)"/>
<path d="M0 0 C0.66 0 1.32 0 2 0 C2 1.98 2 3.96 2 6 C0.68 6 -0.64 6 -2 6 C-1.125 1.125 -1.125 1.125 0 0 Z " fill="#B25D6B" transform="translate(192,80)"/>
<path d="M0 0 C0.33 0 0.66 0 1 0 C1 3.3 1 6.6 1 10 C0.01 10 -0.98 10 -2 10 C-2 8.02 -2 6.04 -2 4 C-1.34 4 -0.68 4 0 4 C0 2.68 0 1.36 0 0 Z " fill="#B3D78E" transform="translate(135,114)"/>
<path d="M0 0 C0.66 0 1.32 0 2 0 C1.47731534 2.76276177 0.89130413 5.3260876 0 8 C-0.99 8 -1.98 8 -3 8 C-1.125 2.25 -1.125 2.25 0 0 Z " fill="#1AA964" transform="translate(69,130)"/>
<path d="M0 0 C1.32 0.33 2.64 0.66 4 1 C3.67 2.98 3.34 4.96 3 7 C2.67 6.34 2.34 5.68 2 5 C1.34 5 0.68 5 0 5 C0 3.35 0 1.7 0 0 Z M0 7 C2 8 2 8 2 8 Z " fill="#D1E6BC" transform="translate(159,103)"/>
<path d="M0 0 C2.25 -0.3125 2.25 -0.3125 5 0 C7.3125 2.5 7.3125 2.5 9 5 C7.68 5 6.36 5 5 5 C4.67 3.68 4.34 2.36 4 1 C2.68 0.67 1.36 0.34 0 0 Z " fill="#34B074" transform="translate(26,111)"/>
<path d="M0 0 C2.97 0.495 2.97 0.495 6 1 C5.67 1.99 5.34 2.98 5 4 C3.35 3.67 1.7 3.34 0 3 C0 2.01 0 1.02 0 0 Z " fill="#9FCE6F" transform="translate(170,102)"/>
<path d="M0 0 C0.99 0 1.98 0 3 0 C2.67 2.31 2.34 4.62 2 7 C1.67 6.01 1.34 5.02 1 4 C0.01 4 -0.98 4 -2 4 C-1.34 2.68 -0.68 1.36 0 0 Z " fill="#C59195" transform="translate(199,87)"/>
<path d="M0 0 C2 3 2 3 1.625 5.6875 C1.41875 6.450625 1.2125 7.21375 1 8 C-1.01920337 6.69593116 -3.01924973 5.36176581 -5 4 C-5 3.67 -5 3.34 -5 3 C-3.35 3 -1.7 3 0 3 C0 2.01 0 1.02 0 0 Z " fill="#F2F5DF" transform="translate(183,84)"/>
<path d="M0 0 C2.5 1.3125 2.5 1.3125 5 3 C5 3.99 5 4.98 5 6 C3.68 5.67 2.36 5.34 1 5 C0.67 3.35 0.34 1.7 0 0 Z " fill="#4FB9BD" transform="translate(173,78)"/>
<path d="M0 0 C0.66 0.33 1.32 0.66 2 1 C1.67 2.98 1.34 4.96 1 7 C-0.32 7.33 -1.64 7.66 -3 8 C-2.01 5.36 -1.02 2.72 0 0 Z " fill="#26A9D7" transform="translate(137,154)"/>
<path d="M0 0 C0 1.65 0 3.3 0 5 C-1.32 5.33 -2.64 5.66 -4 6 C-3.625 3.5625 -3.625 3.5625 -3 1 C-1 0 -1 0 0 0 Z " fill="#29ADB2" transform="translate(195,87)"/>
<path d="M0 0 C1.77706209 2.66559313 2.87548273 5.0280615 4 8 C2.68 7.67 1.36 7.34 0 7 C-0.93423645 3.98968256 -1.04449911 3.13349732 0 0 Z " fill="#2CAAD5" transform="translate(155,154)"/>
<path d="M0 0 C-0.33 1.32 -0.66 2.64 -1 4 C-1.99 4 -2.98 4 -4 4 C-4 3.01 -4 2.02 -4 1 C-4.99 0.67 -5.98 0.34 -7 0 C-3.86650268 -1.04449911 -3.01031744 -0.93423645 0 0 Z " fill="#8AC87C" transform="translate(198,93)"/>
<path d="M0 0 C2.375 0.3125 2.375 0.3125 5 1 C5.66 1.99 6.32 2.98 7 4 C5.68 4 4.36 4 3 4 C1.25 2 1.25 2 0 0 Z " fill="#0AA3D5" transform="translate(121,147)"/>
<path d="M0 0 C1.32 0.33 2.64 0.66 4 1 C4 2.32 4 3.64 4 5 C3.34 5.66 2.68 6.32 2 7 C1.34 4.69 0.68 2.38 0 0 Z " fill="#E6E6A6" transform="translate(160,92)"/>
<path d="M0 0 C0.598125 0.309375 1.19625 0.61875 1.8125 0.9375 C4.08956772 2.10209704 4.08956772 2.10209704 7 3 C6.67 3.99 6.34 4.98 6 6 C3.5625 5.25 3.5625 5.25 1 4 C0.1875 1.875 0.1875 1.875 0 0 Z " fill="#E8E8DD" transform="translate(165,89)"/>
<path d="M0 0 C0.66 0 1.32 0 2 0 C2 1.98 2 3.96 2 6 C1.01 6 0.02 6 -1 6 C-1.042721 4.33388095 -1.04063832 2.66617115 -1 1 C-0.67 0.67 -0.34 0.34 0 0 Z " fill="#99C964" transform="translate(190,72)"/>
</svg>
